PathFileType	3	(X/Y/Z)	D:\Vicon Database\Healthy Subjects\S0040\Jan. 30, 2020\Force Plate Walk 3.trc
DataRate	CameraRate	NumFrames	NumMarkers	Units	OrigDataRate	OrigDataStartFrame	OrigNumFrames
100.0	100.0	7	53	mm	100.0	551	290	
Frame#	Time	right_foot_cluster2			right_foot_cluster3			sternum_cluster1			sternum_cluster2			sternum_cluster3			left_asis			right_asis			left_psis			right_psis			sacrum_cluster1			sacrum_cluster2			sacrum_cluster3			left_lat_femoral_epicondyle			left_anterior_thigh15			left_anterior_thigh25			left_anterior_thigh50			left_lateral_thigh25			left_lateral_thigh50			left_thigh_cluster1			left_thigh_cluster2			left_thigh_cluster3			left_fibular_head			left_tibial_tuberosity			left_anterior_shank30			left_lateral_malleolus			left_shank_cluster1			left_shank_cluster2			left_shank_cluster3			left_heel			left_metatarsal2			left_foot_cluster1			left_foot_cluster2			left_foot_cluster3			right_lat_femoral_epicondyle			right_anterior_thigh15			right_anterior_thigh25			right_anterior_thigh50			right_lateral_thigh25			right_lateral_thigh50			right_thigh_cluster1			right_thigh_cluster2			right_thigh_cluster3			right_fibular_head			right_tibial_tuberosity			right_lateral_distal_shank			right_anterior_shank30			right_lateral_malleolus			right_shank_cluster1			right_shank_cluster2			right_shank_cluster3			right_heel			right_metatarsal2			right_foot_cluster1			
		X1	Y1	Z1	X2	Y2	Z2	X3	Y3	Z3	X4	Y4	Z4	X5	Y5	Z5	X6	Y6	Z6	X7	Y7	Z7	X8	Y8	Z8	X9	Y9	Z9	X10	Y10	Z10	X11	Y11	Z11	X12	Y12	Z12	X13	Y13	Z13	X14	Y14	Z14	X15	Y15	Z15	X16	Y16	Z16	X17	Y17	Z17	X18	Y18	Z18	X19	Y19	Z19	X20	Y20	Z20	X21	Y21	Z21	X22	Y22	Z22	X23	Y23	Z23	X24	Y24	Z24	X25	Y25	Z25	X26	Y26	Z26	X27	Y27	Z27	X28	Y28	Z28	X29	Y29	Z29	X30	Y30	Z30	X31	Y31	Z31	X32	Y32	Z32	X33	Y33	Z33	X34	Y34	Z34	X35	Y35	Z35	X36	Y36	Z36	X37	Y37	Z37	X38	Y38	Z38	X39	Y39	Z39	X40	Y40	Z40	X41	Y41	Z41	X42	Y42	Z42	X43	Y43	Z43	X44	Y44	Z44	X45	Y45	Z45	X46	Y46	Z46	X47	Y47	Z47	X48	Y48	Z48	X49	Y49	Z49	X50	Y50	Z50	X51	Y51	Z51	X52	Y52	Z52	X53	Y53	Z53	
551	5.5	-82.835625	127.53388	-208.1982	-81.458633	128.47327	-245.46019	-197.85097	1442.673	-156.42836	-209.774	1415.0072	-148.8476	-205.69327	1418.1475	-186.22328	-200.99997	1071.053	-32.760517	-180.65215	1067.6823	-281.40176	-31.302191	1080.623	-68.836288	-19.9062	1077.8185	-186.28329	-14.790623	1135.8143	-135.15071	-8.0643883	1110.1293	-145.67799	-9.9509287	1105.7832	-106.66984	-181.11424	537.5224	-15.4576	-264.48053	625.02399	-73.672638	-275.90659	711.36499	-56.374844	-263.78934	849.31158	-31.896852	-171.51337	690.50397	10.810323	-168.91422	838.255	40.699734	-168.90062	790.79926	45.408806	-167.92088	761.67505	41.489243	-204.27287	774.70233	42.251507	-182.80887	455.9982	-11.683756	-229.851	445.1095	-72.876747	-168.34718	198.50197	-87.077164	-98.889275	94.026131	-55.824921	-218.89973	390.44467	-102.17749	-219.52571	362.22952	-94.835556	-200.77383	365.88089	-128.2117	-23.113131	59.340076	-91.304916	-241.82603	64.289001	-92.770142	-180.50664	111.94565	-87.37748	-204.83759	96.677902	-76.944595	-208.69778	101.40216	-114.80228	-253.26735	534.03638	-307.29767	-328.93143	631.6861	-263.9545	-318.79892	717.14349	-258.8501	-271.81201	841.55029	-255.95442	-211.86703	683.33295	-321.1868	-161.82918	823.42352	-335.87115	-170.3036	772.80347	-343.92966	-189.63019	750.44745	-344.62711	-154.72697	738.34253	-332.24524	-223.02638	479.75861	-309.4649	-272.77747	444.76703	-268.07944	-51.006062	280.50836	-270.37613	-100.43842	261.71964	-230.48448	11.716524	195.35481	-249.83176	-228.31198	394.95361	-206.55519	-207.47116	377.45792	-197.49593	-220.56378	362.52689	-229.83238	89.12886	216.6889	-205.68619	-85.978073	82.863503	-215.61285	-73.10347	153.3373	-217.4169
552	5.51	-128.85643	125.08188	-209.37773	-127.20776	125.93995	-246.82233	-212.5789	1445.1008	-157.16106	-224.4955	1417.4302	-149.57416	-220.16054	1420.5503	-186.93608	-216.01569	1072.7972	-33.286381	-194.45889	1071.0033	-281.35974	-46.299038	1083.0154	-68.789467	-34.209877	1080.9404	-186.05934	-29.117989	1138.7914	-134.58882	-22.409502	1113.1965	-145.18964	-24.539293	1108.5742	-106.13926	-184.03574	538.69897	-16.14575	-269.91266	623.75964	-73.865288	-283.97424	709.87317	-56.407291	-275.69806	848.49219	-32.084099	-178.33563	691.71564	9.8149624	-179.98334	839.37915	39.790504	-177.73215	791.80438	44.675625	-176.92764	763.0415	40.544861	-213.48543	775.25732	41.476273	-184.12494	457.00345	-11.9891	-231.86247	445.30676	-72.675041	-169.25671	199.12813	-86.876526	-99.242325	94.647354	-56.17963	-221.07452	390.7569	-101.95299	-221.54704	362.54337	-94.551949	-203.17647	366.21768	-128.16315	-23.203262	59.730591	-91.42939	-242.14517	64.03434	-92.944366	-180.98274	112.0675	-87.52417	-205.22519	96.672287	-77.082878	-209.09848	101.3794	-114.98654	-275.78601	539.57489	-307.79965	-350.21353	639.29779	-265.39575	-338.36777	724.91821	-260.43805	-288.18317	847.89386	-256.72275	-231.46246	688.50031	-322.17075	-179.58041	827.73083	-337.61176	-188.41208	777.16296	-345.20721	-207.8615	755.16382	-345.65091	-173.74207	742.34033	-333.74716	-247.30453	483.77606	-309.17819	-299.51031	450.73328	-268.80475	-86.728577	274.64951	-270.53586	-137.90848	258.34467	-231.38065	-29.059933	185.22429	-249.9193	-258.16888	398.18253	-207.76186	-238.33952	379.47256	-198.58641	-251.9454	365.31808	-230.61046	48.766018	200.18848	-205.02548	-135.46898	80.895004	-216.81862	-116.97838	149.86508	-218.59578
553	5.52	-175.24384	122.71354	-210.96269	-173.31485	123.32091	-248.29346	-227.42398	1447.1393	-157.86589	-239.29311	1419.4326	-150.33875	-234.78046	1422.5695	-187.66246	-231.10129	1074.0753	-33.79414	-208.2753	1073.9014	-281.35236	-61.233265	1085.5739	-68.655289	-48.480053	1083.5309	-185.76555	-43.806999	1141.1322	-134.12202	-37.044228	1115.511	-144.74594	-39.722927	1110.6814	-105.88049	-186.98785	539.86859	-16.900232	-275.34186	622.54688	-74.242393	-292.03052	708.36865	-56.45261	-287.42557	847.44598	-32.150513	-185.16716	692.8576	8.9990234	-190.64761	840.11505	38.267601	-187.17566	793.06812	43.482071	-185.50948	764.33997	39.528973	-222.87633	776.23456	40.303497	-185.66212	458.01733	-12.388802	-233.71803	445.60797	-72.686501	-170.28372	199.84456	-86.806564	-99.714211	95.398575	-56.697269	-223.19339	391.21017	-101.94793	-223.30522	362.95337	-94.407448	-205.36588	366.57318	-128.1433	-23.386396	60.428677	-91.493843	-242.50981	63.778126	-93.143082	-181.49374	112.18742	-87.757072	-205.68947	96.682503	-77.354401	-209.57242	101.37766	-115.19621	-297.42081	544.35657	-307.62936	-370.9649	646.3786	-266.45044	-357.54608	732.18481	-261.61517	-304.34613	853.63971	-257.27557	-250.45135	693.32269	-323.01135	-196.47476	831.70349	-339.13297	-205.92978	781.15088	-346.3251	-226.05811	759.47839	-346.73169	-192.23146	745.98938	-335.28073	-271.18137	487.27399	-308.89481	-325.52335	456.45383	-269.4213	-123.12043	268.25967	-271.19016	-175.67339	254.79189	-232.62065	-71.293617	175.02612	-250.83376	-287.75232	401.29309	-208.72389	-269.02469	381.34808	-199.51996	-283.30835	368.17465	-231.71986	7.1654654	183.80688	-205.65419	-185.23865	79.251518	-218.37563	-161.5244	146.52777	-220.09985
554	5.53	-222.41508	120.90681	-213.00865	-220.0033	120.952	-250.32904	-242.29858	1448.7616	-158.59494	-254.13466	1421.0165	-151.14301	-249.37099	1424.1278	-188.42191	-246.06732	1074.7134	-34.390678	-222.0486	1076.3416	-281.45261	-76.562073	1086.7972	-68.760017	-62.735332	1085.7948	-185.53444	-58.434128	1143.1455	-133.51141	-51.249542	1117.5704	-144.09056	-54.351089	1112.4889	-105.26049	-190.06114	540.97961	-17.574173	-280.70963	621.31824	-74.702744	-300.0379	706.82001	-56.563282	-298.97183	846.15186	-32.127419	-191.96281	694.10138	8.0266476	-201.17104	840.93524	37.89415	-196.42392	794.11511	42.481659	-194.18326	765.56842	38.391144	-231.02864	775.3894	40.068478	-187.51334	458.99533	-12.847738	-235.72044	445.97079	-72.949539	-171.2597	200.51598	-86.959534	-100.22366	96.361572	-56.989479	-225.01503	391.67221	-102.28717	-225.17665	363.43823	-94.556816	-207.88878	366.83548	-127.87908	-23.667366	61.086456	-91.654678	-242.91068	63.590378	-93.320068	-182.05141	112.32533	-88.000748	-206.22925	96.759277	-77.598564	-210.08174	101.35241	-115.49359	-318.59924	548.67706	-307.61841	-391.13992	652.83154	-267.21985	-376.36462	738.77771	-262.34055	-320.38547	858.7301	-257.6297	-270.14612	697.90369	-324.15469	-213.72054	835.32605	-340.95554	-223.61136	784.68915	-347.76245	-244.30811	763.48193	-347.86484	-210.69513	749.29083	-336.94946	-294.77762	490.1525	-308.92703	-350.77423	461.94638	-269.90845	-160.37253	261.64404	-272.50281	-213.65176	251.20509	-234.16925	-114.49997	164.89261	-252.28947	-316.858	404.28729	-209.56534	-299.41922	383.09503	-200.53354	-314.1376	371.02377	-232.97144	-36.340305	167.14606	-207.2894	-235.28719	77.953857	-220.50658	-206.54358	143.29782	-221.97867
555	5.54	-269.67838	119.27302	-215.49638	-267.13278	119.08763	-252.87756	-257.24564	1449.9725	-159.3428	-269.03198	1422.1719	-151.97064	-264.02094	1425.3152	-189.18297	-261.15723	1074.9165	-34.816322	-235.9353	1078.2773	-281.57297	-91.679588	1087.7896	-68.636238	-77.104752	1087.2267	-185.34315	-73.090599	1144.3171	-133.06677	-65.946487	1118.8949	-143.63818	-69.009621	1113.968	-104.55806	-193.3658	541.9624	-18.094034	-286.14725	620.05707	-75.184265	-308.00446	705.09351	-56.74789	-310.33997	844.58752	-32.045181	-198.65265	695.02087	7.0929503	-211.7261	841.64178	37.155216	-205.97345	795.09174	41.835804	-202.46094	765.91235	37.569984	-239.81758	775.43597	39.427666	-189.63504	459.84753	-13.343299	-237.75078	446.31149	-73.39444	-172.27493	201.18037	-87.271538	-100.77098	97.153694	-57.412834	-226.60968	392.05307	-102.35615	-226.74919	363.84521	-94.659866	-209.67456	367.98505	-128.76312	-23.928371	61.761238	-91.830017	-243.27998	63.344143	-93.521133	-182.63811	112.45242	-88.263039	-206.76442	96.82058	-77.826958	-210.53693	101.30402	-115.69392	-339.61771	552.55829	-307.80859	-410.71866	658.59235	-267.54852	-394.67331	744.57349	-262.57834	-336.24957	863.12695	-257.78372	-289.19797	701.90033	-325.11328	-229.11	838.54034	-341.80325	-241.44205	787.88403	-349.35934	-263.29553	767.2262	-349.8696	-229.21225	752.23669	-338.7532	-317.68219	492.24329	-308.74515	-375.74347	466.90695	-270.17401	-197.60025	254.71011	-273.87424	-251.63231	247.7914	-235.94843	-158.70142	155.08035	-254.32309	-345.27756	406.88449	-210.4202	-329.27151	384.49222	-201.43977	-344.50696	373.77142	-234.00258	-80.967133	151.19539	-209.55244	-285.52316	77.352493	-223.145	-252.05246	140.30614	-224.46104
556	5.55	-317.10989	118.17677	-218.82028	-314.50171	117.94551	-256.18335	-272.17963	1450.6545	-160.16386	-283.95422	1422.8848	-152.82291	-278.7226	1425.9949	-189.96797	-276.26172	1074.6885	-35.247719	-249.93164	1079.7234	-281.82001	-106.57302	1088.4222	-68.62809	-91.362846	1088.3475	-185.21587	-87.761353	1145.1929	-132.79298	-80.538437	1119.5626	-143.60129	-83.674271	1114.7405	-104.111	-196.84557	542.85095	-18.490726	-291.62775	618.68005	-75.576912	-315.95825	703.17456	-56.950806	-321.62164	842.74323	-32.01564	-205.3846	695.66827	6.3463197	-222.06329	841.75	36.363773	-215.19673	795.54877	40.854259	-211.32149	766.72919	36.678864	-248.5757	775.16309	38.72403	-192.03418	460.64813	-13.83031	-239.82137	446.63733	-73.935898	-173.34297	201.85297	-87.55954	-101.47058	98.088692	-57.915874	-228.37927	392.49371	-102.82999	-228.56245	364.47269	-95.222839	-210.81544	368.16653	-129.22153	-24.294165	62.707924	-92.243919	-243.75577	63.156925	-93.765472	-183.39435	112.61772	-88.672394	-207.37779	96.730118	-78.268028	-211.1978	101.17634	-116.1497	-359.94897	555.89081	-307.84326	-429.66016	663.61365	-267.52414	-412.45377	749.48468	-262.44382	-352.00183	866.76361	-257.71478	-308.07855	705.36267	-326.01178	-245.4178	841.23138	-343.21317	-259.23459	790.58203	-350.71027	-281.41431	770.35516	-351.33313	-246.70273	754.73334	-340.02649	-340.41446	493.87735	-308.79456	-399.13397	471.71207	-270.26981	-235.72462	248.18877	-275.78418	-290.14163	244.70999	-237.88467	-203.79085	145.77039	-257.02197	-373.29272	409.54712	-211.08571	-358.7572	385.95825	-202.30865	-374.42459	376.50021	-235.01344	-126.50302	135.80367	-212.16292	-335.93002	77.575012	-226.65497	-298.01065	138.05771	-227.62477
557	5.56	-364.75714	118.11713	-222.82054	-361.94034	117.74626	-260.11517	-287.15872	1450.9108	-161.02762	-298.90387	1423.1023	-153.71477	-293.46988	1426.2153	-190.84024	-291.34766	1073.9791	-35.69725	-264.11374	1080.6697	-282.1615	-121.61738	1088.3962	-69.17894	-105.81103	1088.8645	-185.43291	-101.98553	1145.7655	-132.72318	-94.982292	1120.2012	-143.31424	-99.49366	1114.4534	-104.53835	-200.40181	543.57306	-18.858837	-297.15012	617.14063	-75.797264	-323.88135	701.0484	-57.102242	-332.85333	840.63422	-32.052727	-212.47462	696.26007	5.7263012	-232.15579	841.91724	34.940968	-223.55228	795.26782	39.791996	-220.08888	767.11328	36.05307	-257.34363	774.64685	38.094879	-194.4184	461.35431	-14.134232	-241.99338	446.90128	-74.427101	-174.71953	202.6214	-88.154587	-102.19744	99.138092	-58.45034	-231.24347	393.18823	-102.36919	-230.48528	365.19455	-95.484688	-212.62195	368.6575	-129.59436	-24.810173	63.983276	-92.602623	-244.32149	62.90263	-93.98732	-184.18864	112.76548	-88.96489	-208.04512	96.72876	-78.529167	-211.83307	100.6332	-116.56451	-379.35767	558.69366	-307.39957	-447.76202	667.76056	-267.08386	-429.61758	753.42896	-261.91901	-367.56079	869.64215	-257.4949	-326.68399	708.25629	-326.70093	-262.31241	843.41132	-344.88602	-277.33536	792.79828	-352.40656	-299.2941	772.72076	-352.22263	-264.95776	756.72021	-341.67007	-362.59308	495.0798	-308.659	-421.83484	476.10815	-270.30215	-274.4631	242.11377	-278.00473	-328.89029	242.17091	-240.0795	-249.59715	137.27234	-260.08286	-400.45544	412.11194	-211.82672	-387.62158	387.53583	-203.14177	-403.86896	379.34714	-235.94019	-173.3269	121.34914	-215.1548	-386.49063	79.181267	-230.86632	-344.14902	136.59682	-231.39227
